M48
; DRILL file {KiCad 9.0.7} date 2026-03-08T14:20:48-0500
; FORMAT={-:-/ absolute / metric / decimal}
; #@! TF.CreationDate,2026-03-08T14:20:48-05:00
; #@! TF.GenerationSoftware,Kicad,Pcbnew,9.0.7
; #@! TF.FileFunction,Plated,1,2,PTH
FMAT,2
METRIC
; #@! TA.AperFunction,Plated,PTH,ViaDrill
T1C0.300
; #@! TA.AperFunction,Plated,PTH,ComponentDrill
T2C0.600
; #@! TA.AperFunction,Plated,PTH,ComponentDrill
T3C1.000
%
G90
G05
T1
X120.2Y-53.2
X121.5Y-41.4
X121.6Y-34.3
X121.6Y-36.3
X121.6Y-61.7
X121.9Y-27.13
X123.6Y-43.95
X123.7Y-56.0
X124.4Y-56.745
X128.5Y-26.9
X129.4Y-37.6
X133.3Y-52.3
X134.9Y-50.7
X136.1Y-27.1
X136.3Y-37.5
X138.3Y-63.4
X140.4Y-63.4
T3
X115.2Y-31.66
X115.2Y-34.2
X115.2Y-36.74
X115.2Y-39.28
X115.2Y-41.82
X115.2Y-46.96
X115.2Y-49.5
X115.2Y-52.04
X115.2Y-54.58
X115.2Y-57.12
X139.2Y-47.5
X139.2Y-50.04
T2
G00X127.79Y-67.12
M15
G01X127.79Y-68.22
M16
G05
G00X127.79Y-71.55
M15
G01X127.79Y-72.15
M16
G05
G00X136.43Y-67.12
M15
G01X136.43Y-68.22
M16
G05
G00X136.43Y-71.55
M15
G01X136.43Y-72.15
M16
G05
M30
