%TF.GenerationSoftware,KiCad,Pcbnew,9.0.7*%
%TF.CreationDate,2026-03-08T14:18:39-05:00*%
%TF.ProjectId,polly_pcb,706f6c6c-795f-4706-9362-2e6b69636164,rev?*%
%TF.SameCoordinates,Original*%
%TF.FileFunction,Legend,Top*%
%TF.FilePolarity,Positive*%
%FSLAX46Y46*%
G04 Gerber Fmt 4.6, Leading zero omitted, Abs format (unit mm)*
G04 Created by KiCad (PCBNEW 9.0.7) date 2026-03-08 14:18:39*
%MOMM*%
%LPD*%
G01*
G04 APERTURE LIST*
%ADD10C,0.150000*%
%ADD11C,0.120000*%
G04 APERTURE END LIST*
D10*
X133733333Y-62354819D02*
X133400000Y-61878628D01*
X133161905Y-62354819D02*
X133161905Y-61354819D01*
X133161905Y-61354819D02*
X133542857Y-61354819D01*
X133542857Y-61354819D02*
X133638095Y-61402438D01*
X133638095Y-61402438D02*
X133685714Y-61450057D01*
X133685714Y-61450057D02*
X133733333Y-61545295D01*
X133733333Y-61545295D02*
X133733333Y-61688152D01*
X133733333Y-61688152D02*
X133685714Y-61783390D01*
X133685714Y-61783390D02*
X133638095Y-61831009D01*
X133638095Y-61831009D02*
X133542857Y-61878628D01*
X133542857Y-61878628D02*
X133161905Y-61878628D01*
X134114286Y-61450057D02*
X134161905Y-61402438D01*
X134161905Y-61402438D02*
X134257143Y-61354819D01*
X134257143Y-61354819D02*
X134495238Y-61354819D01*
X134495238Y-61354819D02*
X134590476Y-61402438D01*
X134590476Y-61402438D02*
X134638095Y-61450057D01*
X134638095Y-61450057D02*
X134685714Y-61545295D01*
X134685714Y-61545295D02*
X134685714Y-61640533D01*
X134685714Y-61640533D02*
X134638095Y-61783390D01*
X134638095Y-61783390D02*
X134066667Y-62354819D01*
X134066667Y-62354819D02*
X134685714Y-62354819D01*
X119259580Y-59166666D02*
X119307200Y-59214285D01*
X119307200Y-59214285D02*
X119354819Y-59357142D01*
X119354819Y-59357142D02*
X119354819Y-59452380D01*
X119354819Y-59452380D02*
X119307200Y-59595237D01*
X119307200Y-59595237D02*
X119211961Y-59690475D01*
X119211961Y-59690475D02*
X119116723Y-59738094D01*
X119116723Y-59738094D02*
X118926247Y-59785713D01*
X118926247Y-59785713D02*
X118783390Y-59785713D01*
X118783390Y-59785713D02*
X118592914Y-59738094D01*
X118592914Y-59738094D02*
X118497676Y-59690475D01*
X118497676Y-59690475D02*
X118402438Y-59595237D01*
X118402438Y-59595237D02*
X118354819Y-59452380D01*
X118354819Y-59452380D02*
X118354819Y-59357142D01*
X118354819Y-59357142D02*
X118402438Y-59214285D01*
X118402438Y-59214285D02*
X118450057Y-59166666D01*
X118688152Y-58309523D02*
X119354819Y-58309523D01*
X118307200Y-58547618D02*
X119021485Y-58785713D01*
X119021485Y-58785713D02*
X119021485Y-58166666D01*
X119459580Y-38266666D02*
X119507200Y-38314285D01*
X119507200Y-38314285D02*
X119554819Y-38457142D01*
X119554819Y-38457142D02*
X119554819Y-38552380D01*
X119554819Y-38552380D02*
X119507200Y-38695237D01*
X119507200Y-38695237D02*
X119411961Y-38790475D01*
X119411961Y-38790475D02*
X119316723Y-38838094D01*
X119316723Y-38838094D02*
X119126247Y-38885713D01*
X119126247Y-38885713D02*
X118983390Y-38885713D01*
X118983390Y-38885713D02*
X118792914Y-38838094D01*
X118792914Y-38838094D02*
X118697676Y-38790475D01*
X118697676Y-38790475D02*
X118602438Y-38695237D01*
X118602438Y-38695237D02*
X118554819Y-38552380D01*
X118554819Y-38552380D02*
X118554819Y-38457142D01*
X118554819Y-38457142D02*
X118602438Y-38314285D01*
X118602438Y-38314285D02*
X118650057Y-38266666D01*
X118650057Y-37885713D02*
X118602438Y-37838094D01*
X118602438Y-37838094D02*
X118554819Y-37742856D01*
X118554819Y-37742856D02*
X118554819Y-37504761D01*
X118554819Y-37504761D02*
X118602438Y-37409523D01*
X118602438Y-37409523D02*
X118650057Y-37361904D01*
X118650057Y-37361904D02*
X118745295Y-37314285D01*
X118745295Y-37314285D02*
X118840533Y-37314285D01*
X118840533Y-37314285D02*
X118983390Y-37361904D01*
X118983390Y-37361904D02*
X119554819Y-37933332D01*
X119554819Y-37933332D02*
X119554819Y-37314285D01*
X115259580Y-24616666D02*
X115307200Y-24664285D01*
X115307200Y-24664285D02*
X115354819Y-24807142D01*
X115354819Y-24807142D02*
X115354819Y-24902380D01*
X115354819Y-24902380D02*
X115307200Y-25045237D01*
X115307200Y-25045237D02*
X115211961Y-25140475D01*
X115211961Y-25140475D02*
X115116723Y-25188094D01*
X115116723Y-25188094D02*
X114926247Y-25235713D01*
X114926247Y-25235713D02*
X114783390Y-25235713D01*
X114783390Y-25235713D02*
X114592914Y-25188094D01*
X114592914Y-25188094D02*
X114497676Y-25140475D01*
X114497676Y-25140475D02*
X114402438Y-25045237D01*
X114402438Y-25045237D02*
X114354819Y-24902380D01*
X114354819Y-24902380D02*
X114354819Y-24807142D01*
X114354819Y-24807142D02*
X114402438Y-24664285D01*
X114402438Y-24664285D02*
X114450057Y-24616666D01*
X114354819Y-24283332D02*
X114354819Y-23664285D01*
X114354819Y-23664285D02*
X114735771Y-23997618D01*
X114735771Y-23997618D02*
X114735771Y-23854761D01*
X114735771Y-23854761D02*
X114783390Y-23759523D01*
X114783390Y-23759523D02*
X114831009Y-23711904D01*
X114831009Y-23711904D02*
X114926247Y-23664285D01*
X114926247Y-23664285D02*
X115164342Y-23664285D01*
X115164342Y-23664285D02*
X115259580Y-23711904D01*
X115259580Y-23711904D02*
X115307200Y-23759523D01*
X115307200Y-23759523D02*
X115354819Y-23854761D01*
X115354819Y-23854761D02*
X115354819Y-24140475D01*
X115354819Y-24140475D02*
X115307200Y-24235713D01*
X115307200Y-24235713D02*
X115259580Y-24283332D01*
X125353333Y-62364819D02*
X125020000Y-61888628D01*
X124781905Y-62364819D02*
X124781905Y-61364819D01*
X124781905Y-61364819D02*
X125162857Y-61364819D01*
X125162857Y-61364819D02*
X125258095Y-61412438D01*
X125258095Y-61412438D02*
X125305714Y-61460057D01*
X125305714Y-61460057D02*
X125353333Y-61555295D01*
X125353333Y-61555295D02*
X125353333Y-61698152D01*
X125353333Y-61698152D02*
X125305714Y-61793390D01*
X125305714Y-61793390D02*
X125258095Y-61841009D01*
X125258095Y-61841009D02*
X125162857Y-61888628D01*
X125162857Y-61888628D02*
X124781905Y-61888628D01*
X125686667Y-61364819D02*
X126305714Y-61364819D01*
X126305714Y-61364819D02*
X125972381Y-61745771D01*
X125972381Y-61745771D02*
X126115238Y-61745771D01*
X126115238Y-61745771D02*
X126210476Y-61793390D01*
X126210476Y-61793390D02*
X126258095Y-61841009D01*
X126258095Y-61841009D02*
X126305714Y-61936247D01*
X126305714Y-61936247D02*
X126305714Y-62174342D01*
X126305714Y-62174342D02*
X126258095Y-62269580D01*
X126258095Y-62269580D02*
X126210476Y-62317200D01*
X126210476Y-62317200D02*
X126115238Y-62364819D01*
X126115238Y-62364819D02*
X125829524Y-62364819D01*
X125829524Y-62364819D02*
X125734286Y-62317200D01*
X125734286Y-62317200D02*
X125686667Y-62269580D01*
X135066667Y-53407200D02*
X135209524Y-53454819D01*
X135209524Y-53454819D02*
X135447619Y-53454819D01*
X135447619Y-53454819D02*
X135542857Y-53407200D01*
X135542857Y-53407200D02*
X135590476Y-53359580D01*
X135590476Y-53359580D02*
X135638095Y-53264342D01*
X135638095Y-53264342D02*
X135638095Y-53169104D01*
X135638095Y-53169104D02*
X135590476Y-53073866D01*
X135590476Y-53073866D02*
X135542857Y-53026247D01*
X135542857Y-53026247D02*
X135447619Y-52978628D01*
X135447619Y-52978628D02*
X135257143Y-52931009D01*
X135257143Y-52931009D02*
X135161905Y-52883390D01*
X135161905Y-52883390D02*
X135114286Y-52835771D01*
X135114286Y-52835771D02*
X135066667Y-52740533D01*
X135066667Y-52740533D02*
X135066667Y-52645295D01*
X135066667Y-52645295D02*
X135114286Y-52550057D01*
X135114286Y-52550057D02*
X135161905Y-52502438D01*
X135161905Y-52502438D02*
X135257143Y-52454819D01*
X135257143Y-52454819D02*
X135495238Y-52454819D01*
X135495238Y-52454819D02*
X135638095Y-52502438D01*
X135971429Y-52454819D02*
X136209524Y-53454819D01*
X136209524Y-53454819D02*
X136400000Y-52740533D01*
X136400000Y-52740533D02*
X136590476Y-53454819D01*
X136590476Y-53454819D02*
X136828572Y-52454819D01*
X137733333Y-53454819D02*
X137161905Y-53454819D01*
X137447619Y-53454819D02*
X137447619Y-52454819D01*
X137447619Y-52454819D02*
X137352381Y-52597676D01*
X137352381Y-52597676D02*
X137257143Y-52692914D01*
X137257143Y-52692914D02*
X137161905Y-52740533D01*
X124586667Y-53507200D02*
X124729524Y-53554819D01*
X124729524Y-53554819D02*
X124967619Y-53554819D01*
X124967619Y-53554819D02*
X125062857Y-53507200D01*
X125062857Y-53507200D02*
X125110476Y-53459580D01*
X125110476Y-53459580D02*
X125158095Y-53364342D01*
X125158095Y-53364342D02*
X125158095Y-53269104D01*
X125158095Y-53269104D02*
X125110476Y-53173866D01*
X125110476Y-53173866D02*
X125062857Y-53126247D01*
X125062857Y-53126247D02*
X124967619Y-53078628D01*
X124967619Y-53078628D02*
X124777143Y-53031009D01*
X124777143Y-53031009D02*
X124681905Y-52983390D01*
X124681905Y-52983390D02*
X124634286Y-52935771D01*
X124634286Y-52935771D02*
X124586667Y-52840533D01*
X124586667Y-52840533D02*
X124586667Y-52745295D01*
X124586667Y-52745295D02*
X124634286Y-52650057D01*
X124634286Y-52650057D02*
X124681905Y-52602438D01*
X124681905Y-52602438D02*
X124777143Y-52554819D01*
X124777143Y-52554819D02*
X125015238Y-52554819D01*
X125015238Y-52554819D02*
X125158095Y-52602438D01*
X125491429Y-52554819D02*
X125729524Y-53554819D01*
X125729524Y-53554819D02*
X125920000Y-52840533D01*
X125920000Y-52840533D02*
X126110476Y-53554819D01*
X126110476Y-53554819D02*
X126348572Y-52554819D01*
X126681905Y-52650057D02*
X126729524Y-52602438D01*
X126729524Y-52602438D02*
X126824762Y-52554819D01*
X126824762Y-52554819D02*
X127062857Y-52554819D01*
X127062857Y-52554819D02*
X127158095Y-52602438D01*
X127158095Y-52602438D02*
X127205714Y-52650057D01*
X127205714Y-52650057D02*
X127253333Y-52745295D01*
X127253333Y-52745295D02*
X127253333Y-52840533D01*
X127253333Y-52840533D02*
X127205714Y-52983390D01*
X127205714Y-52983390D02*
X126634286Y-53554819D01*
X126634286Y-53554819D02*
X127253333Y-53554819D01*
X120354819Y-24566666D02*
X119878628Y-24899999D01*
X120354819Y-25138094D02*
X119354819Y-25138094D01*
X119354819Y-25138094D02*
X119354819Y-24757142D01*
X119354819Y-24757142D02*
X119402438Y-24661904D01*
X119402438Y-24661904D02*
X119450057Y-24614285D01*
X119450057Y-24614285D02*
X119545295Y-24566666D01*
X119545295Y-24566666D02*
X119688152Y-24566666D01*
X119688152Y-24566666D02*
X119783390Y-24614285D01*
X119783390Y-24614285D02*
X119831009Y-24661904D01*
X119831009Y-24661904D02*
X119878628Y-24757142D01*
X119878628Y-24757142D02*
X119878628Y-25138094D01*
X120354819Y-23614285D02*
X120354819Y-24185713D01*
X120354819Y-23899999D02*
X119354819Y-23899999D01*
X119354819Y-23899999D02*
X119497676Y-23995237D01*
X119497676Y-23995237D02*
X119592914Y-24090475D01*
X119592914Y-24090475D02*
X119640533Y-24185713D01*
X118338095Y-65854819D02*
X118338095Y-66664342D01*
X118338095Y-66664342D02*
X118385714Y-66759580D01*
X118385714Y-66759580D02*
X118433333Y-66807200D01*
X118433333Y-66807200D02*
X118528571Y-66854819D01*
X118528571Y-66854819D02*
X118719047Y-66854819D01*
X118719047Y-66854819D02*
X118814285Y-66807200D01*
X118814285Y-66807200D02*
X118861904Y-66759580D01*
X118861904Y-66759580D02*
X118909523Y-66664342D01*
X118909523Y-66664342D02*
X118909523Y-65854819D01*
X119909523Y-66854819D02*
X119338095Y-66854819D01*
X119623809Y-66854819D02*
X119623809Y-65854819D01*
X119623809Y-65854819D02*
X119528571Y-65997676D01*
X119528571Y-65997676D02*
X119433333Y-66092914D01*
X119433333Y-66092914D02*
X119338095Y-66140533D01*
X114066666Y-43854819D02*
X114066666Y-44569104D01*
X114066666Y-44569104D02*
X114019047Y-44711961D01*
X114019047Y-44711961D02*
X113923809Y-44807200D01*
X113923809Y-44807200D02*
X113780952Y-44854819D01*
X113780952Y-44854819D02*
X113685714Y-44854819D01*
X115019047Y-43854819D02*
X114542857Y-43854819D01*
X114542857Y-43854819D02*
X114495238Y-44331009D01*
X114495238Y-44331009D02*
X114542857Y-44283390D01*
X114542857Y-44283390D02*
X114638095Y-44235771D01*
X114638095Y-44235771D02*
X114876190Y-44235771D01*
X114876190Y-44235771D02*
X114971428Y-44283390D01*
X114971428Y-44283390D02*
X115019047Y-44331009D01*
X115019047Y-44331009D02*
X115066666Y-44426247D01*
X115066666Y-44426247D02*
X115066666Y-44664342D01*
X115066666Y-44664342D02*
X115019047Y-44759580D01*
X115019047Y-44759580D02*
X114971428Y-44807200D01*
X114971428Y-44807200D02*
X114876190Y-44854819D01*
X114876190Y-44854819D02*
X114638095Y-44854819D01*
X114638095Y-44854819D02*
X114542857Y-44807200D01*
X114542857Y-44807200D02*
X114495238Y-44759580D01*
X117559580Y-24616666D02*
X117607200Y-24664285D01*
X117607200Y-24664285D02*
X117654819Y-24807142D01*
X117654819Y-24807142D02*
X117654819Y-24902380D01*
X117654819Y-24902380D02*
X117607200Y-25045237D01*
X117607200Y-25045237D02*
X117511961Y-25140475D01*
X117511961Y-25140475D02*
X117416723Y-25188094D01*
X117416723Y-25188094D02*
X117226247Y-25235713D01*
X117226247Y-25235713D02*
X117083390Y-25235713D01*
X117083390Y-25235713D02*
X116892914Y-25188094D01*
X116892914Y-25188094D02*
X116797676Y-25140475D01*
X116797676Y-25140475D02*
X116702438Y-25045237D01*
X116702438Y-25045237D02*
X116654819Y-24902380D01*
X116654819Y-24902380D02*
X116654819Y-24807142D01*
X116654819Y-24807142D02*
X116702438Y-24664285D01*
X116702438Y-24664285D02*
X116750057Y-24616666D01*
X117654819Y-23664285D02*
X117654819Y-24235713D01*
X117654819Y-23949999D02*
X116654819Y-23949999D01*
X116654819Y-23949999D02*
X116797676Y-24045237D01*
X116797676Y-24045237D02*
X116892914Y-24140475D01*
X116892914Y-24140475D02*
X116940533Y-24235713D01*
X138866666Y-44574819D02*
X138866666Y-45289104D01*
X138866666Y-45289104D02*
X138819047Y-45431961D01*
X138819047Y-45431961D02*
X138723809Y-45527200D01*
X138723809Y-45527200D02*
X138580952Y-45574819D01*
X138580952Y-45574819D02*
X138485714Y-45574819D01*
X139771428Y-44908152D02*
X139771428Y-45574819D01*
X139533333Y-44527200D02*
X139295238Y-45241485D01*
X139295238Y-45241485D02*
X139914285Y-45241485D01*
X131538095Y-24254819D02*
X131538095Y-25064342D01*
X131538095Y-25064342D02*
X131585714Y-25159580D01*
X131585714Y-25159580D02*
X131633333Y-25207200D01*
X131633333Y-25207200D02*
X131728571Y-25254819D01*
X131728571Y-25254819D02*
X131919047Y-25254819D01*
X131919047Y-25254819D02*
X132014285Y-25207200D01*
X132014285Y-25207200D02*
X132061904Y-25159580D01*
X132061904Y-25159580D02*
X132109523Y-25064342D01*
X132109523Y-25064342D02*
X132109523Y-24254819D01*
X132538095Y-24350057D02*
X132585714Y-24302438D01*
X132585714Y-24302438D02*
X132680952Y-24254819D01*
X132680952Y-24254819D02*
X132919047Y-24254819D01*
X132919047Y-24254819D02*
X133014285Y-24302438D01*
X133014285Y-24302438D02*
X133061904Y-24350057D01*
X133061904Y-24350057D02*
X133109523Y-24445295D01*
X133109523Y-24445295D02*
X133109523Y-24540533D01*
X133109523Y-24540533D02*
X133061904Y-24683390D01*
X133061904Y-24683390D02*
X132490476Y-25254819D01*
X132490476Y-25254819D02*
X133109523Y-25254819D01*
X127638094Y-20269104D02*
X128114284Y-20269104D01*
X127542856Y-20554819D02*
X127876189Y-19554819D01*
X127876189Y-19554819D02*
X128209522Y-20554819D01*
X128542856Y-19888152D02*
X128542856Y-20554819D01*
X128542856Y-19983390D02*
X128590475Y-19935771D01*
X128590475Y-19935771D02*
X128685713Y-19888152D01*
X128685713Y-19888152D02*
X128828570Y-19888152D01*
X128828570Y-19888152D02*
X128923808Y-19935771D01*
X128923808Y-19935771D02*
X128971427Y-20031009D01*
X128971427Y-20031009D02*
X128971427Y-20554819D01*
X129304761Y-19888152D02*
X129685713Y-19888152D01*
X129447618Y-19554819D02*
X129447618Y-20411961D01*
X129447618Y-20411961D02*
X129495237Y-20507200D01*
X129495237Y-20507200D02*
X129590475Y-20554819D01*
X129590475Y-20554819D02*
X129685713Y-20554819D01*
X130399999Y-20507200D02*
X130304761Y-20554819D01*
X130304761Y-20554819D02*
X130114285Y-20554819D01*
X130114285Y-20554819D02*
X130019047Y-20507200D01*
X130019047Y-20507200D02*
X129971428Y-20411961D01*
X129971428Y-20411961D02*
X129971428Y-20031009D01*
X129971428Y-20031009D02*
X130019047Y-19935771D01*
X130019047Y-19935771D02*
X130114285Y-19888152D01*
X130114285Y-19888152D02*
X130304761Y-19888152D01*
X130304761Y-19888152D02*
X130399999Y-19935771D01*
X130399999Y-19935771D02*
X130447618Y-20031009D01*
X130447618Y-20031009D02*
X130447618Y-20126247D01*
X130447618Y-20126247D02*
X129971428Y-20221485D01*
X130876190Y-19888152D02*
X130876190Y-20554819D01*
X130876190Y-19983390D02*
X130923809Y-19935771D01*
X130923809Y-19935771D02*
X131019047Y-19888152D01*
X131019047Y-19888152D02*
X131161904Y-19888152D01*
X131161904Y-19888152D02*
X131257142Y-19935771D01*
X131257142Y-19935771D02*
X131304761Y-20031009D01*
X131304761Y-20031009D02*
X131304761Y-20554819D01*
X131780952Y-19888152D02*
X131780952Y-20554819D01*
X131780952Y-19983390D02*
X131828571Y-19935771D01*
X131828571Y-19935771D02*
X131923809Y-19888152D01*
X131923809Y-19888152D02*
X132066666Y-19888152D01*
X132066666Y-19888152D02*
X132161904Y-19935771D01*
X132161904Y-19935771D02*
X132209523Y-20031009D01*
X132209523Y-20031009D02*
X132209523Y-20554819D01*
X133114285Y-20554819D02*
X133114285Y-20031009D01*
X133114285Y-20031009D02*
X133066666Y-19935771D01*
X133066666Y-19935771D02*
X132971428Y-19888152D01*
X132971428Y-19888152D02*
X132780952Y-19888152D01*
X132780952Y-19888152D02*
X132685714Y-19935771D01*
X133114285Y-20507200D02*
X133019047Y-20554819D01*
X133019047Y-20554819D02*
X132780952Y-20554819D01*
X132780952Y-20554819D02*
X132685714Y-20507200D01*
X132685714Y-20507200D02*
X132638095Y-20411961D01*
X132638095Y-20411961D02*
X132638095Y-20316723D01*
X132638095Y-20316723D02*
X132685714Y-20221485D01*
X132685714Y-20221485D02*
X132780952Y-20173866D01*
X132780952Y-20173866D02*
X133019047Y-20173866D01*
X133019047Y-20173866D02*
X133114285Y-20126247D01*
X134304762Y-20269104D02*
X134780952Y-20269104D01*
X134209524Y-20554819D02*
X134542857Y-19554819D01*
X134542857Y-19554819D02*
X134876190Y-20554819D01*
X135209524Y-20554819D02*
X135209524Y-19888152D01*
X135209524Y-20078628D02*
X135257143Y-19983390D01*
X135257143Y-19983390D02*
X135304762Y-19935771D01*
X135304762Y-19935771D02*
X135400000Y-19888152D01*
X135400000Y-19888152D02*
X135495238Y-19888152D01*
X136209524Y-20507200D02*
X136114286Y-20554819D01*
X136114286Y-20554819D02*
X135923810Y-20554819D01*
X135923810Y-20554819D02*
X135828572Y-20507200D01*
X135828572Y-20507200D02*
X135780953Y-20411961D01*
X135780953Y-20411961D02*
X135780953Y-20031009D01*
X135780953Y-20031009D02*
X135828572Y-19935771D01*
X135828572Y-19935771D02*
X135923810Y-19888152D01*
X135923810Y-19888152D02*
X136114286Y-19888152D01*
X136114286Y-19888152D02*
X136209524Y-19935771D01*
X136209524Y-19935771D02*
X136257143Y-20031009D01*
X136257143Y-20031009D02*
X136257143Y-20126247D01*
X136257143Y-20126247D02*
X135780953Y-20221485D01*
X137114286Y-20554819D02*
X137114286Y-20031009D01*
X137114286Y-20031009D02*
X137066667Y-19935771D01*
X137066667Y-19935771D02*
X136971429Y-19888152D01*
X136971429Y-19888152D02*
X136780953Y-19888152D01*
X136780953Y-19888152D02*
X136685715Y-19935771D01*
X137114286Y-20507200D02*
X137019048Y-20554819D01*
X137019048Y-20554819D02*
X136780953Y-20554819D01*
X136780953Y-20554819D02*
X136685715Y-20507200D01*
X136685715Y-20507200D02*
X136638096Y-20411961D01*
X136638096Y-20411961D02*
X136638096Y-20316723D01*
X136638096Y-20316723D02*
X136685715Y-20221485D01*
X136685715Y-20221485D02*
X136780953Y-20173866D01*
X136780953Y-20173866D02*
X137019048Y-20173866D01*
X137019048Y-20173866D02*
X137114286Y-20126247D01*
X134933333Y-46279819D02*
X134600000Y-45803628D01*
X134361905Y-46279819D02*
X134361905Y-45279819D01*
X134361905Y-45279819D02*
X134742857Y-45279819D01*
X134742857Y-45279819D02*
X134838095Y-45327438D01*
X134838095Y-45327438D02*
X134885714Y-45375057D01*
X134885714Y-45375057D02*
X134933333Y-45470295D01*
X134933333Y-45470295D02*
X134933333Y-45613152D01*
X134933333Y-45613152D02*
X134885714Y-45708390D01*
X134885714Y-45708390D02*
X134838095Y-45756009D01*
X134838095Y-45756009D02*
X134742857Y-45803628D01*
X134742857Y-45803628D02*
X134361905Y-45803628D01*
X135790476Y-45613152D02*
X135790476Y-46279819D01*
X135552381Y-45232200D02*
X135314286Y-45946485D01*
X135314286Y-45946485D02*
X135933333Y-45946485D01*
X131796666Y-70004819D02*
X131796666Y-70719104D01*
X131796666Y-70719104D02*
X131749047Y-70861961D01*
X131749047Y-70861961D02*
X131653809Y-70957200D01*
X131653809Y-70957200D02*
X131510952Y-71004819D01*
X131510952Y-71004819D02*
X131415714Y-71004819D01*
X132796666Y-71004819D02*
X132225238Y-71004819D01*
X132510952Y-71004819D02*
X132510952Y-70004819D01*
X132510952Y-70004819D02*
X132415714Y-70147676D01*
X132415714Y-70147676D02*
X132320476Y-70242914D01*
X132320476Y-70242914D02*
X132225238Y-70290533D01*
X113766666Y-59254819D02*
X113766666Y-59969104D01*
X113766666Y-59969104D02*
X113719047Y-60111961D01*
X113719047Y-60111961D02*
X113623809Y-60207200D01*
X113623809Y-60207200D02*
X113480952Y-60254819D01*
X113480952Y-60254819D02*
X113385714Y-60254819D01*
X114195238Y-59350057D02*
X114242857Y-59302438D01*
X114242857Y-59302438D02*
X114338095Y-59254819D01*
X114338095Y-59254819D02*
X114576190Y-59254819D01*
X114576190Y-59254819D02*
X114671428Y-59302438D01*
X114671428Y-59302438D02*
X114719047Y-59350057D01*
X114719047Y-59350057D02*
X114766666Y-59445295D01*
X114766666Y-59445295D02*
X114766666Y-59540533D01*
X114766666Y-59540533D02*
X114719047Y-59683390D01*
X114719047Y-59683390D02*
X114147619Y-60254819D01*
X114147619Y-60254819D02*
X114766666Y-60254819D01*
D11*
%TO.C,R2*%
X134572936Y-62865000D02*
X135027064Y-62865000D01*
X134572936Y-64335000D02*
X135027064Y-64335000D01*
%TO.C,C4*%
X118065000Y-55938748D02*
X118065000Y-56461252D01*
X119535000Y-55938748D02*
X119535000Y-56461252D01*
%TO.C,C2*%
X118365000Y-41161252D02*
X118365000Y-40638748D01*
X119835000Y-41161252D02*
X119835000Y-40638748D01*
%TO.C,C3*%
X114165000Y-27411252D02*
X114165000Y-26888748D01*
X115635000Y-27411252D02*
X115635000Y-26888748D01*
%TO.C,R3*%
X126647064Y-62875000D02*
X126192936Y-62875000D01*
X126647064Y-64345000D02*
X126192936Y-64345000D01*
%TO.C,SW1*%
X133070000Y-53970000D02*
X139530000Y-53970000D01*
X133070000Y-54000000D02*
X133070000Y-53970000D01*
X133070000Y-55900000D02*
X133070000Y-58500000D01*
X133070000Y-60430000D02*
X133070000Y-60400000D01*
X133070000Y-60430000D02*
X139530000Y-60430000D01*
X139530000Y-53970000D02*
X139530000Y-54000000D01*
X139530000Y-55900000D02*
X139530000Y-58500000D01*
X139530000Y-60430000D02*
X139530000Y-60400000D01*
%TO.C,SW2*%
X122690000Y-53920000D02*
X129150000Y-53920000D01*
X122690000Y-53950000D02*
X122690000Y-53920000D01*
X122690000Y-55850000D02*
X122690000Y-58450000D01*
X122690000Y-60380000D02*
X122690000Y-60350000D01*
X122690000Y-60380000D02*
X129150000Y-60380000D01*
X129150000Y-53920000D02*
X129150000Y-53950000D01*
X129150000Y-55850000D02*
X129150000Y-58450000D01*
X129150000Y-60380000D02*
X129150000Y-60350000D01*
%TO.C,R1*%
X119165000Y-26972936D02*
X119165000Y-27427064D01*
X120635000Y-26972936D02*
X120635000Y-27427064D01*
%TO.C,U1*%
X116990000Y-62790000D02*
X116990000Y-64050000D01*
X116990000Y-69610000D02*
X116990000Y-68350000D01*
X120750000Y-62790000D02*
X116990000Y-62790000D01*
X120750000Y-69610000D02*
X116990000Y-69610000D01*
X122270000Y-69840000D02*
X121790000Y-69840000D01*
X122030000Y-69510000D01*
X122270000Y-69840000D01*
G36*
X122270000Y-69840000D02*
G01*
X121790000Y-69840000D01*
X122030000Y-69510000D01*
X122270000Y-69840000D01*
G37*
%TO.C,J5*%
X113820000Y-40550000D02*
X113820000Y-30280000D01*
X116580000Y-30280000D02*
X113820000Y-30280000D01*
X116580000Y-40550000D02*
X113820000Y-40550000D01*
X116580000Y-40550000D02*
X116580000Y-30280000D01*
X116580000Y-41820000D02*
X116580000Y-43200000D01*
X116580000Y-43200000D02*
X115200000Y-43200000D01*
%TO.C,C1*%
X116565000Y-27411252D02*
X116565000Y-26888748D01*
X118035000Y-27411252D02*
X118035000Y-26888748D01*
%TO.C,J4*%
X137820000Y-46120000D02*
X139200000Y-46120000D01*
X137820000Y-47500000D02*
X137820000Y-46120000D01*
X137820000Y-48770000D02*
X137820000Y-51420000D01*
X137820000Y-48770000D02*
X140580000Y-48770000D01*
X137820000Y-51420000D02*
X140580000Y-51420000D01*
X140580000Y-48770000D02*
X140580000Y-51420000D01*
%TO.C,U2*%
X123400000Y-17100000D02*
X123400000Y-23850000D01*
X123400000Y-17100000D02*
X141400000Y-17100000D01*
X123400000Y-41850000D02*
X123400000Y-42600000D01*
X123400000Y-42600000D02*
X124400000Y-42600000D01*
X141400000Y-17100000D02*
X141400000Y-23850000D01*
X141400000Y-23040000D02*
X123400000Y-23040000D01*
X141400000Y-41850000D02*
X141400000Y-42600000D01*
X141400000Y-42600000D02*
X140400000Y-42600000D01*
%TO.C,R4*%
X134872936Y-46740000D02*
X135327064Y-46740000D01*
X134872936Y-48210000D02*
X135327064Y-48210000D01*
%TO.C,J1*%
X127410000Y-68900000D02*
X127410000Y-70900000D01*
X127410000Y-72800000D02*
X127410000Y-74700000D01*
X127410000Y-74700000D02*
X136810000Y-74700000D01*
X136810000Y-68900000D02*
X136810000Y-70900000D01*
X136810000Y-72800000D02*
X136810000Y-74700000D01*
%TO.C,J2*%
X113820000Y-45580000D02*
X115200000Y-45580000D01*
X113820000Y-46960000D02*
X113820000Y-45580000D01*
X113820000Y-48230000D02*
X113820000Y-58500000D01*
X113820000Y-48230000D02*
X116580000Y-48230000D01*
X113820000Y-58500000D02*
X116580000Y-58500000D01*
X116580000Y-48230000D02*
X116580000Y-58500000D01*
%TD*%
M02*
