%TF.GenerationSoftware,KiCad,Pcbnew,9.0.7*%
%TF.CreationDate,2026-03-08T14:18:39-05:00*%
%TF.ProjectId,polly_pcb,706f6c6c-795f-4706-9362-2e6b69636164,rev?*%
%TF.SameCoordinates,Original*%
%TF.FileFunction,Copper,L2,Bot*%
%TF.FilePolarity,Positive*%
%FSLAX46Y46*%
G04 Gerber Fmt 4.6, Leading zero omitted, Abs format (unit mm)*
G04 Created by KiCad (PCBNEW 9.0.7) date 2026-03-08 14:18:39*
%MOMM*%
%LPD*%
G01*
G04 APERTURE LIST*
%TA.AperFunction,ComponentPad*%
%ADD10R,1.700000X1.700000*%
%TD*%
%TA.AperFunction,ComponentPad*%
%ADD11C,1.700000*%
%TD*%
%TA.AperFunction,HeatsinkPad*%
%ADD12O,1.000000X2.100000*%
%TD*%
%TA.AperFunction,HeatsinkPad*%
%ADD13O,1.000000X1.600000*%
%TD*%
%TA.AperFunction,ViaPad*%
%ADD14C,0.600000*%
%TD*%
%TA.AperFunction,Conductor*%
%ADD15C,0.300000*%
%TD*%
%TA.AperFunction,Conductor*%
%ADD16C,0.254000*%
%TD*%
G04 APERTURE END LIST*
D10*
%TO.P,J5,1,Pin_1*%
%TO.N,+3.3V*%
X115200000Y-41820000D03*
D11*
%TO.P,J5,2,Pin_2*%
%TO.N,GND*%
X115200000Y-39280000D03*
%TO.P,J5,3,Pin_3*%
%TO.N,Net-(J5-Pin_3)*%
X115200000Y-36740000D03*
%TO.P,J5,4,Pin_4*%
%TO.N,Net-(J5-Pin_4)*%
X115200000Y-34200000D03*
%TO.P,J5,5,Pin_5*%
%TO.N,Net-(J5-Pin_5)*%
X115200000Y-31660000D03*
%TD*%
D10*
%TO.P,J4,1,Pin_1*%
%TO.N,Net-(J4-Pin_1)*%
X139200000Y-47500000D03*
D11*
%TO.P,J4,2,Pin_2*%
%TO.N,GND*%
X139200000Y-50040000D03*
%TD*%
D12*
%TO.P,J1,S1,SHIELD*%
%TO.N,GND*%
X127790000Y-67670000D03*
D13*
X127790000Y-71850000D03*
D12*
X136430000Y-67670000D03*
D13*
X136430000Y-71850000D03*
%TD*%
D10*
%TO.P,J2,1,Pin_1*%
%TO.N,Net-(J2-Pin_1)*%
X115200000Y-46960000D03*
D11*
%TO.P,J2,2,Pin_2*%
%TO.N,Net-(J2-Pin_2)*%
X115200000Y-49500000D03*
%TO.P,J2,3,Pin_3*%
%TO.N,Net-(J2-Pin_3)*%
X115200000Y-52040000D03*
%TO.P,J2,4,Pin_4*%
%TO.N,+5V*%
X115200000Y-54580000D03*
%TO.P,J2,5,Pin_5*%
%TO.N,GND*%
X115200000Y-57120000D03*
%TD*%
D14*
%TO.N,GND*%
X133300000Y-52300000D03*
X121600000Y-61700000D03*
X129400000Y-37600000D03*
X136100000Y-27100000D03*
X121600000Y-34300000D03*
X138300000Y-63400000D03*
X136300000Y-37500000D03*
X128500000Y-26900000D03*
X140400000Y-63400000D03*
X121600000Y-36300000D03*
X134900000Y-50700000D03*
%TO.N,Net-(U2-EN)*%
X120200000Y-53200000D03*
X121900000Y-27130000D03*
%TO.N,Net-(U2-GPIO20{slash}U1CTS{slash}ADC2_CH9{slash}CLK_OUT1{slash}USB_D+)*%
X123600000Y-43950000D03*
X124400000Y-56745000D03*
%TO.N,Net-(U2-GPIO19{slash}U1RTS{slash}ADC2_CH8{slash}CLK_OUT2{slash}USB_D-)*%
X123700000Y-56000000D03*
X121500000Y-41400000D03*
%TD*%
D15*
%TO.N,Net-(U2-EN)*%
X121900000Y-27130000D02*
X121470000Y-27130000D01*
X121470000Y-27130000D02*
X120200000Y-28400000D01*
X120200000Y-28400000D02*
X120200000Y-53200000D01*
D16*
%TO.N,Net-(U2-GPIO20{slash}U1CTS{slash}ADC2_CH9{slash}CLK_OUT1{slash}USB_D+)*%
X123600000Y-43950000D02*
X123600000Y-45700000D01*
X124400000Y-46500000D02*
X124400000Y-56745000D01*
X123600000Y-45700000D02*
X124400000Y-46500000D01*
%TO.N,Net-(U2-GPIO19{slash}U1RTS{slash}ADC2_CH8{slash}CLK_OUT2{slash}USB_D-)*%
X121500000Y-44300000D02*
X121500000Y-41400000D01*
X123700000Y-46500000D02*
X122800000Y-45600000D01*
X122800000Y-45600000D02*
X121500000Y-44300000D01*
X123700000Y-56000000D02*
X123700000Y-46500000D01*
%TD*%
%TA.AperFunction,Conductor*%
%TO.N,GND*%
G36*
X142442539Y-23220185D02*
G01*
X142488294Y-23272989D01*
X142499500Y-23324500D01*
X142499500Y-72675500D01*
X142479815Y-72742539D01*
X142427011Y-72788294D01*
X142375500Y-72799500D01*
X137428940Y-72799500D01*
X137361901Y-72779815D01*
X137316146Y-72727011D01*
X137306202Y-72657853D01*
X137314379Y-72628047D01*
X137391570Y-72441689D01*
X137391572Y-72441681D01*
X137429999Y-72248495D01*
X137430000Y-72248492D01*
X137430000Y-72100000D01*
X136730000Y-72100000D01*
X136730000Y-71600000D01*
X137430000Y-71600000D01*
X137430000Y-71451508D01*
X137429999Y-71451504D01*
X137391572Y-71258318D01*
X137391569Y-71258306D01*
X137316192Y-71076328D01*
X137316185Y-71076315D01*
X137206751Y-70912537D01*
X137206748Y-70912533D01*
X137067466Y-70773251D01*
X137067462Y-70773248D01*
X136903684Y-70663814D01*
X136903671Y-70663807D01*
X136721691Y-70588429D01*
X136721683Y-70588427D01*
X136680000Y-70580135D01*
X136680000Y-71383011D01*
X136670060Y-71365795D01*
X136614205Y-71309940D01*
X136545796Y-71270444D01*
X136469496Y-71250000D01*
X136390504Y-71250000D01*
X136314204Y-71270444D01*
X136245795Y-71309940D01*
X136189940Y-71365795D01*
X136180000Y-71383011D01*
X136180000Y-70580136D01*
X136179999Y-70580135D01*
X136138316Y-70588427D01*
X136138308Y-70588429D01*
X135956328Y-70663807D01*
X135956315Y-70663814D01*
X135792537Y-70773248D01*
X135792533Y-70773251D01*
X135653251Y-70912533D01*
X135653248Y-70912537D01*
X135543814Y-71076315D01*
X135543807Y-71076328D01*
X135468430Y-71258306D01*
X135468427Y-71258318D01*
X135430000Y-71451504D01*
X135430000Y-71600000D01*
X136130000Y-71600000D01*
X136130000Y-72100000D01*
X135430000Y-72100000D01*
X135430000Y-72248495D01*
X135468427Y-72441681D01*
X135468429Y-72441689D01*
X135545621Y-72628047D01*
X135553090Y-72697517D01*
X135521815Y-72759996D01*
X135461726Y-72795648D01*
X135431060Y-72799500D01*
X128788940Y-72799500D01*
X128721901Y-72779815D01*
X128676146Y-72727011D01*
X128666202Y-72657853D01*
X128674379Y-72628047D01*
X128751570Y-72441689D01*
X128751572Y-72441681D01*
X128789999Y-72248495D01*
X128790000Y-72248492D01*
X128790000Y-72100000D01*
X128090000Y-72100000D01*
X128090000Y-71600000D01*
X128790000Y-71600000D01*
X128790000Y-71451508D01*
X128789999Y-71451504D01*
X128751572Y-71258318D01*
X128751569Y-71258306D01*
X128676192Y-71076328D01*
X128676185Y-71076315D01*
X128566751Y-70912537D01*
X128566748Y-70912533D01*
X128427466Y-70773251D01*
X128427462Y-70773248D01*
X128263684Y-70663814D01*
X128263671Y-70663807D01*
X128081691Y-70588429D01*
X128081683Y-70588427D01*
X128040000Y-70580135D01*
X128040000Y-71383011D01*
X128030060Y-71365795D01*
X127974205Y-71309940D01*
X127905796Y-71270444D01*
X127829496Y-71250000D01*
X127750504Y-71250000D01*
X127674204Y-71270444D01*
X127605795Y-71309940D01*
X127549940Y-71365795D01*
X127540000Y-71383011D01*
X127540000Y-70580136D01*
X127539999Y-70580135D01*
X127498316Y-70588427D01*
X127498308Y-70588429D01*
X127316328Y-70663807D01*
X127316315Y-70663814D01*
X127152537Y-70773248D01*
X127152533Y-70773251D01*
X127013251Y-70912533D01*
X127013248Y-70912537D01*
X126903814Y-71076315D01*
X126903807Y-71076328D01*
X126828430Y-71258306D01*
X126828427Y-71258318D01*
X126790000Y-71451504D01*
X126790000Y-71600000D01*
X127490000Y-71600000D01*
X127490000Y-72100000D01*
X126790000Y-72100000D01*
X126790000Y-72248495D01*
X126828427Y-72441681D01*
X126828429Y-72441689D01*
X126905621Y-72628047D01*
X126913090Y-72697517D01*
X126881815Y-72759996D01*
X126821726Y-72795648D01*
X126791060Y-72799500D01*
X113024500Y-72799500D01*
X112957461Y-72779815D01*
X112911706Y-72727011D01*
X112900500Y-72675500D01*
X112900500Y-67021504D01*
X126790000Y-67021504D01*
X126790000Y-67420000D01*
X127490000Y-67420000D01*
X127490000Y-67920000D01*
X126790000Y-67920000D01*
X126790000Y-68318495D01*
X126828427Y-68511681D01*
X126828430Y-68511693D01*
X126903807Y-68693671D01*
X126903814Y-68693684D01*
X127013248Y-68857462D01*
X127013251Y-68857466D01*
X127152533Y-68996748D01*
X127152537Y-68996751D01*
X127316315Y-69106185D01*
X127316328Y-69106192D01*
X127498308Y-69181569D01*
X127540000Y-69189862D01*
X127540000Y-68386988D01*
X127549940Y-68404205D01*
X127605795Y-68460060D01*
X127674204Y-68499556D01*
X127750504Y-68520000D01*
X127829496Y-68520000D01*
X127905796Y-68499556D01*
X127974205Y-68460060D01*
X128030060Y-68404205D01*
X128040000Y-68386988D01*
X128040000Y-69189862D01*
X128081690Y-69181569D01*
X128081692Y-69181569D01*
X128263671Y-69106192D01*
X128263684Y-69106185D01*
X128427462Y-68996751D01*
X128427466Y-68996748D01*
X128566748Y-68857466D01*
X128566751Y-68857462D01*
X128679574Y-68688613D01*
X128681007Y-68689570D01*
X128724198Y-68645580D01*
X128792332Y-68630103D01*
X128858018Y-68653919D01*
X128860089Y-68655697D01*
X128860189Y-68655568D01*
X128866630Y-68660510D01*
X128866635Y-68660515D01*
X128997865Y-68736281D01*
X129144234Y-68775500D01*
X129144236Y-68775500D01*
X129295764Y-68775500D01*
X129295766Y-68775500D01*
X129442135Y-68736281D01*
X129573365Y-68660515D01*
X129680515Y-68553365D01*
X129756281Y-68422135D01*
X129795500Y-68275766D01*
X129795500Y-68124234D01*
X134424500Y-68124234D01*
X134424500Y-68275765D01*
X134463719Y-68422136D01*
X134485615Y-68460060D01*
X134539485Y-68553365D01*
X134646635Y-68660515D01*
X134777865Y-68736281D01*
X134924234Y-68775500D01*
X134924236Y-68775500D01*
X135075764Y-68775500D01*
X135075766Y-68775500D01*
X135222135Y-68736281D01*
X135353365Y-68660515D01*
X135353372Y-68660507D01*
X135359811Y-68655568D01*
X135362044Y-68658478D01*
X135408258Y-68632865D01*
X135477980Y-68637411D01*
X135534176Y-68678930D01*
X135540394Y-68688634D01*
X135540426Y-68688613D01*
X135653248Y-68857462D01*
X135653251Y-68857466D01*
X135792533Y-68996748D01*
X135792537Y-68996751D01*
X135956315Y-69106185D01*
X135956328Y-69106192D01*
X136138308Y-69181569D01*
X136180000Y-69189862D01*
X136180000Y-68386988D01*
X136189940Y-68404205D01*
X136245795Y-68460060D01*
X136314204Y-68499556D01*
X136390504Y-68520000D01*
X136469496Y-68520000D01*
X136545796Y-68499556D01*
X136614205Y-68460060D01*
X136670060Y-68404205D01*
X136680000Y-68386988D01*
X136680000Y-69189862D01*
X136721690Y-69181569D01*
X136721692Y-69181569D01*
X136903671Y-69106192D01*
X136903684Y-69106185D01*
X137067462Y-68996751D01*
X137067466Y-68996748D01*
X137206748Y-68857466D01*
X137206751Y-68857462D01*
X137316185Y-68693684D01*
X137316192Y-68693671D01*
X137391569Y-68511693D01*
X137391572Y-68511681D01*
X137429999Y-68318495D01*
X137430000Y-68318492D01*
X137430000Y-67920000D01*
X136730000Y-67920000D01*
X136730000Y-67420000D01*
X137430000Y-67420000D01*
X137430000Y-67021508D01*
X137429999Y-67021504D01*
X137391572Y-66828318D01*
X137391569Y-66828306D01*
X137316192Y-66646328D01*
X137316185Y-66646315D01*
X137206751Y-66482537D01*
X137206748Y-66482533D01*
X137067466Y-66343251D01*
X137067462Y-66343248D01*
X136903684Y-66233814D01*
X136903671Y-66233807D01*
X136721691Y-66158429D01*
X136721683Y-66158427D01*
X136680000Y-66150135D01*
X136680000Y-66953011D01*
X136670060Y-66935795D01*
X136614205Y-66879940D01*
X136545796Y-66840444D01*
X136469496Y-66820000D01*
X136390504Y-66820000D01*
X136314204Y-66840444D01*
X136245795Y-66879940D01*
X136189940Y-66935795D01*
X136180000Y-66953011D01*
X136180000Y-66150136D01*
X136179999Y-66150135D01*
X136138316Y-66158427D01*
X136138308Y-66158429D01*
X135956328Y-66233807D01*
X135956315Y-66233814D01*
X135792537Y-66343248D01*
X135792533Y-66343251D01*
X135653251Y-66482533D01*
X135653248Y-66482537D01*
X135543814Y-66646315D01*
X135543807Y-66646328D01*
X135468430Y-66828306D01*
X135468427Y-66828318D01*
X135430000Y-67021504D01*
X135430000Y-67420000D01*
X136130000Y-67420000D01*
X136130000Y-67920000D01*
X135574464Y-67920000D01*
X135507425Y-67900315D01*
X135467077Y-67858000D01*
X135460517Y-67846638D01*
X135460513Y-67846633D01*
X135353367Y-67739487D01*
X135353365Y-67739485D01*
X135287750Y-67701602D01*
X135222136Y-67663719D01*
X135148950Y-67644109D01*
X135075766Y-67624500D01*
X134924234Y-67624500D01*
X134777863Y-67663719D01*
X134646635Y-67739485D01*
X134646632Y-67739487D01*
X134539487Y-67846632D01*
X134539485Y-67846635D01*
X134463719Y-67977863D01*
X134424500Y-68124234D01*
X129795500Y-68124234D01*
X129756281Y-67977865D01*
X129680515Y-67846635D01*
X129573365Y-67739485D01*
X129507750Y-67701602D01*
X129442136Y-67663719D01*
X129368950Y-67644109D01*
X129295766Y-67624500D01*
X129144234Y-67624500D01*
X128997863Y-67663719D01*
X128866635Y-67739485D01*
X128866632Y-67739487D01*
X128759486Y-67846633D01*
X128759482Y-67846638D01*
X128752923Y-67858000D01*
X128702356Y-67906216D01*
X128645536Y-67920000D01*
X128090000Y-67920000D01*
X128090000Y-67420000D01*
X128790000Y-67420000D01*
X128790000Y-67021508D01*
X128789999Y-67021504D01*
X128751572Y-66828318D01*
X128751569Y-66828306D01*
X128676192Y-66646328D01*
X128676185Y-66646315D01*
X128566751Y-66482537D01*
X128566748Y-66482533D01*
X128427466Y-66343251D01*
X128427462Y-66343248D01*
X128263684Y-66233814D01*
X128263671Y-66233807D01*
X128081691Y-66158429D01*
X128081683Y-66158427D01*
X128040000Y-66150135D01*
X128040000Y-66953011D01*
X128030060Y-66935795D01*
X127974205Y-66879940D01*
X127905796Y-66840444D01*
X127829496Y-66820000D01*
X127750504Y-66820000D01*
X127674204Y-66840444D01*
X127605795Y-66879940D01*
X127549940Y-66935795D01*
X127540000Y-66953011D01*
X127540000Y-66150136D01*
X127539999Y-66150135D01*
X127498316Y-66158427D01*
X127498308Y-66158429D01*
X127316328Y-66233807D01*
X127316315Y-66233814D01*
X127152537Y-66343248D01*
X127152533Y-66343251D01*
X127013251Y-66482533D01*
X127013248Y-66482537D01*
X126903814Y-66646315D01*
X126903807Y-66646328D01*
X126828430Y-66828306D01*
X126828427Y-66828318D01*
X126790000Y-67021504D01*
X112900500Y-67021504D01*
X112900500Y-46062135D01*
X113849500Y-46062135D01*
X113849500Y-47857870D01*
X113849501Y-47857876D01*
X113855908Y-47917483D01*
X113906202Y-48052328D01*
X113906206Y-48052335D01*
X113992452Y-48167544D01*
X113992455Y-48167547D01*
X114107664Y-48253793D01*
X114107671Y-48253797D01*
X114239082Y-48302810D01*
X114295016Y-48344681D01*
X114319433Y-48410145D01*
X114304582Y-48478418D01*
X114283431Y-48506673D01*
X114169889Y-48620215D01*
X114044951Y-48792179D01*
X113948444Y-48981585D01*
X113882753Y-49183760D01*
X113859205Y-49332439D01*
X113849500Y-49393713D01*
X113849500Y-49606287D01*
X113882754Y-49816243D01*
X113920935Y-49933753D01*
X113948444Y-50018414D01*
X114044951Y-50207820D01*
X114169890Y-50379786D01*
X114320213Y-50530109D01*
X114492182Y-50655050D01*
X114500946Y-50659516D01*
X114551742Y-50707491D01*
X114568536Y-50775312D01*
X114545998Y-50841447D01*
X114500946Y-50880484D01*
X114492182Y-50884949D01*
X114320213Y-51009890D01*
X114169890Y-51160213D01*
X114044951Y-51332179D01*
X113948444Y-51521585D01*
X113882753Y-51723760D01*
X113849500Y-51933713D01*
X113849500Y-52146286D01*
X113882753Y-52356239D01*
X113948444Y-52558414D01*
X114044951Y-52747820D01*
X114169890Y-52919786D01*
X114320213Y-53070109D01*
X114492182Y-53195050D01*
X114500946Y-53199516D01*
X114551742Y-53247491D01*
X114568536Y-53315312D01*
X114545998Y-53381447D01*
X114500946Y-53420484D01*
X114492182Y-53424949D01*
X114320213Y-53549890D01*
X114169890Y-53700213D01*
X114044951Y-53872179D01*
X113948444Y-54061585D01*
X113882753Y-54263760D01*
X113849500Y-54473713D01*
X113849500Y-54686286D01*
X113882753Y-54896239D01*
X113948444Y-55098414D01*
X114044951Y-55287820D01*
X114169890Y-55459786D01*
X114320213Y-55610109D01*
X114492179Y-55735048D01*
X114492181Y-55735049D01*
X114492184Y-55735051D01*
X114501493Y-55739794D01*
X114552290Y-55787766D01*
X114569087Y-55855587D01*
X114546552Y-55921722D01*
X114501505Y-55960760D01*
X114492446Y-55965376D01*
X114492440Y-55965380D01*
X114438282Y-56004727D01*
X114438282Y-56004728D01*
X115070591Y-56637037D01*
X115007007Y-56654075D01*
X114892993Y-56719901D01*
X114799901Y-56812993D01*
X114734075Y-56927007D01*
X114717037Y-56990591D01*
X114084728Y-56358282D01*
X114084727Y-56358282D01*
X114045380Y-56412439D01*
X113948904Y-56601782D01*
X113883242Y-56803869D01*
X113883242Y-56803872D01*
X113850000Y-57013753D01*
X113850000Y-57226246D01*
X113883242Y-57436127D01*
X113883242Y-57436130D01*
X113948904Y-57638217D01*
X114045375Y-57827550D01*
X114084728Y-57881716D01*
X114717037Y-57249408D01*
X114734075Y-57312993D01*
X114799901Y-57427007D01*
X114892993Y-57520099D01*
X115007007Y-57585925D01*
X115070590Y-57602962D01*
X114438282Y-58235269D01*
X114438282Y-58235270D01*
X114492449Y-58274624D01*
X114681782Y-58371095D01*
X114883870Y-58436757D01*
X115093754Y-58470000D01*
X115306246Y-58470000D01*
X115516127Y-58436757D01*
X115516130Y-58436757D01*
X115718217Y-58371095D01*
X115907554Y-58274622D01*
X115961716Y-58235270D01*
X115961717Y-58235270D01*
X115329408Y-57602962D01*
X115392993Y-57585925D01*
X115507007Y-57520099D01*
X115600099Y-57427007D01*
X115665925Y-57312993D01*
X115682962Y-57249408D01*
X116315270Y-57881717D01*
X116315270Y-57881716D01*
X116354622Y-57827554D01*
X116451095Y-57638217D01*
X116516757Y-57436130D01*
X116516757Y-57436127D01*
X116550000Y-57226246D01*
X116550000Y-57013753D01*
X116516757Y-56803872D01*
X116516757Y-56803869D01*
X116451095Y-56601782D01*
X116354624Y-56412449D01*
X116315270Y-56358282D01*
X116315269Y-56358282D01*
X115682962Y-56990590D01*
X115665925Y-56927007D01*
X115600099Y-56812993D01*
X115507007Y-56719901D01*
X115392993Y-56654075D01*
X115329409Y-56637037D01*
X115961716Y-56004728D01*
X115907547Y-55965373D01*
X115907547Y-55965372D01*
X115898500Y-55960763D01*
X115847706Y-55912788D01*
X115830912Y-55844966D01*
X115853451Y-55778832D01*
X115898508Y-55739793D01*
X115907816Y-55735051D01*
X115987007Y-55677515D01*
X116079786Y-55610109D01*
X116079788Y-55610106D01*
X116079792Y-55610104D01*
X116230104Y-55459792D01*
X116230106Y-55459788D01*
X116230109Y-55459786D01*
X116355048Y-55287820D01*
X116355047Y-55287820D01*
X116355051Y-55287816D01*
X116451557Y-55098412D01*
X116517246Y-54896243D01*
X116550500Y-54686287D01*
X116550500Y-54473713D01*
X116517246Y-54263757D01*
X116451557Y-54061588D01*
X116355051Y-53872184D01*
X116355049Y-53872181D01*
X116355048Y-53872179D01*
X116230109Y-53700213D01*
X116079786Y-53549890D01*
X115907820Y-53424951D01*
X115907115Y-53424591D01*
X115899054Y-53420485D01*
X115848259Y-53372512D01*
X115831463Y-53304692D01*
X115853999Y-53238556D01*
X115899054Y-53199515D01*
X115907816Y-53195051D01*
X116009529Y-53121153D01*
X119399500Y-53121153D01*
X119399500Y-53278846D01*
X119430261Y-53433489D01*
X119430264Y-53433501D01*
X119490602Y-53579172D01*
X119490609Y-53579185D01*
X119578210Y-53710288D01*
X119578213Y-53710292D01*
X119689707Y-53821786D01*
X119689711Y-53821789D01*
X119820814Y-53909390D01*
X119820827Y-53909397D01*
X119966498Y-53969735D01*
X119966503Y-53969737D01*
X120121153Y-54000499D01*
X120121156Y-54000500D01*
X120121158Y-54000500D01*
X120278844Y-54000500D01*
X120278845Y-54000499D01*
X120433497Y-53969737D01*
X120579179Y-53909394D01*
X120710289Y-53821789D01*
X120821789Y-53710289D01*
X120909394Y-53579179D01*
X120969737Y-53433497D01*
X121000500Y-53278842D01*
X121000500Y-53121158D01*
X121000500Y-53121155D01*
X121000499Y-53121153D01*
X120969738Y-52966510D01*
X120969737Y-52966503D01*
X120909394Y-52820821D01*
X120871396Y-52763953D01*
X120850520Y-52697276D01*
X120850500Y-52695064D01*
X120850500Y-44837281D01*
X120870185Y-44770242D01*
X120922989Y-44724487D01*
X120992147Y-44714543D01*
X121055703Y-44743568D01*
X121062181Y-44749600D01*
X123036181Y-46723600D01*
X123069666Y-46784923D01*
X123072500Y-46811281D01*
X123072500Y-55460642D01*
X123052815Y-55527681D01*
X123051602Y-55529533D01*
X122990609Y-55620814D01*
X122990602Y-55620827D01*
X122930264Y-55766498D01*
X122930261Y-55766510D01*
X122899500Y-55921153D01*
X122899500Y-56078846D01*
X122930261Y-56233489D01*
X122930264Y-56233501D01*
X122990602Y-56379172D01*
X122990609Y-56379185D01*
X123078210Y-56510288D01*
X123078213Y-56510292D01*
X123189707Y-56621786D01*
X123189711Y-56621789D01*
X123320814Y-56709390D01*
X123320827Y-56709397D01*
X123408230Y-56745599D01*
X123466503Y-56769737D01*
X123512511Y-56778888D01*
X123574420Y-56811272D01*
X123608995Y-56871987D01*
X123609936Y-56876313D01*
X123630261Y-56978491D01*
X123630264Y-56978501D01*
X123690602Y-57124172D01*
X123690609Y-57124185D01*
X123778210Y-57255288D01*
X123778213Y-57255292D01*
X123889707Y-57366786D01*
X123889711Y-57366789D01*
X124020814Y-57454390D01*
X124020827Y-57454397D01*
X124166498Y-57514735D01*
X124166503Y-57514737D01*
X124321153Y-57545499D01*
X124321156Y-57545500D01*
X124321158Y-57545500D01*
X124478844Y-57545500D01*
X124478845Y-57545499D01*
X124633497Y-57514737D01*
X124779179Y-57454394D01*
X124910289Y-57366789D01*
X125021789Y-57255289D01*
X125109394Y-57124179D01*
X125169737Y-56978497D01*
X125200500Y-56823842D01*
X125200500Y-56666158D01*
X125200500Y-56666155D01*
X125200499Y-56666153D01*
X125169737Y-56511503D01*
X125114927Y-56379179D01*
X125109397Y-56365827D01*
X125109390Y-56365814D01*
X125048398Y-56274533D01*
X125027520Y-56207855D01*
X125027500Y-56205642D01*
X125027500Y-46602135D01*
X137849500Y-46602135D01*
X137849500Y-48397870D01*
X137849501Y-48397876D01*
X137855908Y-48457483D01*
X137906202Y-48592328D01*
X137906206Y-48592335D01*
X137992452Y-48707544D01*
X137992455Y-48707547D01*
X138107664Y-48793793D01*
X138107671Y-48793797D01*
X138152618Y-48810561D01*
X138242517Y-48844091D01*
X138302127Y-48850500D01*
X138312685Y-48850499D01*
X138379723Y-48870179D01*
X138400372Y-48886818D01*
X139070591Y-49557037D01*
X139007007Y-49574075D01*
X138892993Y-49639901D01*
X138799901Y-49732993D01*
X138734075Y-49847007D01*
X138717037Y-49910591D01*
X138084728Y-49278282D01*
X138084727Y-49278282D01*
X138045380Y-49332439D01*
X137948904Y-49521782D01*
X137883242Y-49723869D01*
X137883242Y-49723872D01*
X137850000Y-49933753D01*
X137850000Y-50146246D01*
X137883242Y-50356127D01*
X137883242Y-50356130D01*
X137948904Y-50558217D01*
X138045375Y-50747550D01*
X138084728Y-50801716D01*
X138717037Y-50169408D01*
X138734075Y-50232993D01*
X138799901Y-50347007D01*
X138892993Y-50440099D01*
X139007007Y-50505925D01*
X139070590Y-50522962D01*
X138438282Y-51155269D01*
X138438282Y-51155270D01*
X138492449Y-51194624D01*
X138681782Y-51291095D01*
X138883870Y-51356757D01*
X139093754Y-51390000D01*
X139306246Y-51390000D01*
X139516127Y-51356757D01*
X139516130Y-51356757D01*
X139718217Y-51291095D01*
X139907554Y-51194622D01*
X139961716Y-51155270D01*
X139961717Y-51155270D01*
X139329408Y-50522962D01*
X139392993Y-50505925D01*
X139507007Y-50440099D01*
X139600099Y-50347007D01*
X139665925Y-50232993D01*
X139682962Y-50169408D01*
X140315270Y-50801717D01*
X140315270Y-50801716D01*
X140354622Y-50747554D01*
X140451095Y-50558217D01*
X140516757Y-50356130D01*
X140516757Y-50356127D01*
X140550000Y-50146246D01*
X140550000Y-49933753D01*
X140516757Y-49723872D01*
X140516757Y-49723869D01*
X140451095Y-49521782D01*
X140354624Y-49332449D01*
X140315270Y-49278282D01*
X140315269Y-49278282D01*
X139682962Y-49910590D01*
X139665925Y-49847007D01*
X139600099Y-49732993D01*
X139507007Y-49639901D01*
X139392993Y-49574075D01*
X139329409Y-49557037D01*
X139999627Y-48886818D01*
X140060950Y-48853333D01*
X140087307Y-48850499D01*
X140097872Y-48850499D01*
X140157483Y-48844091D01*
X140292331Y-48793796D01*
X140407546Y-48707546D01*
X140493796Y-48592331D01*
X140544091Y-48457483D01*
X140550500Y-48397873D01*
X140550499Y-46602128D01*
X140544091Y-46542517D01*
X140505180Y-46438192D01*
X140493797Y-46407671D01*
X140493793Y-46407664D01*
X140407547Y-46292455D01*
X140407544Y-46292452D01*
X140292335Y-46206206D01*
X140292328Y-46206202D01*
X140157482Y-46155908D01*
X140157483Y-46155908D01*
X140097883Y-46149501D01*
X140097881Y-46149500D01*
X140097873Y-46149500D01*
X140097864Y-46149500D01*
X138302129Y-46149500D01*
X138302123Y-46149501D01*
X138242516Y-46155908D01*
X138107671Y-46206202D01*
X138107664Y-46206206D01*
X137992455Y-46292452D01*
X137992452Y-46292455D01*
X137906206Y-46407664D01*
X137906202Y-46407671D01*
X137855908Y-46542517D01*
X137849501Y-46602116D01*
X137849501Y-46602123D01*
X137849500Y-46602135D01*
X125027500Y-46602135D01*
X125027500Y-46438196D01*
X125027499Y-46438192D01*
X125003387Y-46316972D01*
X125003386Y-46316966D01*
X124975676Y-46250070D01*
X124956083Y-46202767D01*
X124887414Y-46099996D01*
X124887413Y-46099994D01*
X124849535Y-46062116D01*
X124800008Y-46012589D01*
X124263819Y-45476400D01*
X124230334Y-45415077D01*
X124227500Y-45388719D01*
X124227500Y-44489356D01*
X124247185Y-44422317D01*
X124248398Y-44420465D01*
X124309394Y-44329179D01*
X124369737Y-44183497D01*
X124400500Y-44028842D01*
X124400500Y-43871158D01*
X124400500Y-43871155D01*
X124400499Y-43871153D01*
X124369738Y-43716510D01*
X124369737Y-43716503D01*
X124369735Y-43716498D01*
X124309397Y-43570827D01*
X124309390Y-43570814D01*
X124221789Y-43439711D01*
X124221786Y-43439707D01*
X124110292Y-43328213D01*
X124110288Y-43328210D01*
X123979185Y-43240609D01*
X123979172Y-43240602D01*
X123833501Y-43180264D01*
X123833489Y-43180261D01*
X123678845Y-43149500D01*
X123678842Y-43149500D01*
X123521158Y-43149500D01*
X123521155Y-43149500D01*
X123366510Y-43180261D01*
X123366498Y-43180264D01*
X123220827Y-43240602D01*
X123220814Y-43240609D01*
X123089711Y-43328210D01*
X123089707Y-43328213D01*
X122978213Y-43439707D01*
X122978210Y-43439711D01*
X122890609Y-43570814D01*
X122890602Y-43570827D01*
X122830264Y-43716498D01*
X122830261Y-43716510D01*
X122799500Y-43871153D01*
X122799500Y-44028846D01*
X122830261Y-44183489D01*
X122830264Y-44183501D01*
X122890603Y-44329174D01*
X122890604Y-44329175D01*
X122890606Y-44329179D01*
X122912405Y-44361803D01*
X122951602Y-44420465D01*
X122957252Y-44438511D01*
X122967477Y-44454421D01*
X122971928Y-44485380D01*
X122972480Y-44487142D01*
X122972500Y-44489356D01*
X122972500Y-44585719D01*
X122952815Y-44652758D01*
X122900011Y-44698513D01*
X122830853Y-44708457D01*
X122767297Y-44679432D01*
X122760819Y-44673400D01*
X122163819Y-44076400D01*
X122130334Y-44015077D01*
X122127500Y-43988719D01*
X122127500Y-41939356D01*
X122147185Y-41872317D01*
X122148398Y-41870465D01*
X122149500Y-41868816D01*
X122209394Y-41779179D01*
X122269737Y-41633497D01*
X122300500Y-41478842D01*
X122300500Y-41321158D01*
X122300500Y-41321155D01*
X122300499Y-41321153D01*
X122269738Y-41166510D01*
X122269737Y-41166503D01*
X122269735Y-41166498D01*
X122209397Y-41020827D01*
X122209390Y-41020814D01*
X122121789Y-40889711D01*
X122121786Y-40889707D01*
X122010292Y-40778213D01*
X122010288Y-40778210D01*
X121879185Y-40690609D01*
X121879172Y-40690602D01*
X121733501Y-40630264D01*
X121733489Y-40630261D01*
X121578845Y-40599500D01*
X121578842Y-40599500D01*
X121421158Y-40599500D01*
X121421155Y-40599500D01*
X121266510Y-40630261D01*
X121266498Y-40630264D01*
X121120827Y-40690602D01*
X121120809Y-40690612D01*
X121043390Y-40742342D01*
X120976713Y-40763220D01*
X120909333Y-40744735D01*
X120862643Y-40692756D01*
X120850500Y-40639240D01*
X120850500Y-28720806D01*
X120870185Y-28653767D01*
X120886815Y-28633129D01*
X121581023Y-27938920D01*
X121642344Y-27905437D01*
X121692891Y-27904986D01*
X121766264Y-27919580D01*
X121821156Y-27930500D01*
X121821158Y-27930500D01*
X121978844Y-27930500D01*
X121978845Y-27930499D01*
X122133497Y-27899737D01*
X122279179Y-27839394D01*
X122410289Y-27751789D01*
X122521789Y-27640289D01*
X122609394Y-27509179D01*
X122669737Y-27363497D01*
X122700500Y-27208842D01*
X122700500Y-27051158D01*
X122700500Y-27051155D01*
X122700499Y-27051153D01*
X122669738Y-26896510D01*
X122669737Y-26896503D01*
X122669735Y-26896498D01*
X122609397Y-26750827D01*
X122609390Y-26750814D01*
X122521789Y-26619711D01*
X122521786Y-26619707D01*
X122410292Y-26508213D01*
X122410288Y-26508210D01*
X122279185Y-26420609D01*
X122279172Y-26420602D01*
X122133501Y-26360264D01*
X122133489Y-26360261D01*
X121978845Y-26329500D01*
X121978842Y-26329500D01*
X121821158Y-26329500D01*
X121821155Y-26329500D01*
X121666510Y-26360261D01*
X121666498Y-26360264D01*
X121520827Y-26420602D01*
X121520809Y-26420612D01*
X121463129Y-26459153D01*
X121411752Y-26477537D01*
X121411906Y-26478311D01*
X121406694Y-26479347D01*
X121406400Y-26479453D01*
X121405934Y-26479498D01*
X121280261Y-26504497D01*
X121280255Y-26504499D01*
X121161875Y-26553533D01*
X121161866Y-26553538D01*
X121055331Y-26624723D01*
X121055327Y-26624726D01*
X119694727Y-27985325D01*
X119694726Y-27985326D01*
X119623534Y-28091874D01*
X119574499Y-28210255D01*
X119574497Y-28210261D01*
X119549500Y-28335928D01*
X119549500Y-52695064D01*
X119529815Y-52762103D01*
X119528603Y-52763954D01*
X119490608Y-52820817D01*
X119490602Y-52820828D01*
X119430264Y-52966498D01*
X119430261Y-52966510D01*
X119399500Y-53121153D01*
X116009529Y-53121153D01*
X116079786Y-53070109D01*
X116079788Y-53070106D01*
X116079792Y-53070104D01*
X116230104Y-52919792D01*
X116230106Y-52919788D01*
X116230109Y-52919786D01*
X116355048Y-52747820D01*
X116355047Y-52747820D01*
X116355051Y-52747816D01*
X116451557Y-52558412D01*
X116517246Y-52356243D01*
X116550500Y-52146287D01*
X116550500Y-51933713D01*
X116517246Y-51723757D01*
X116451557Y-51521588D01*
X116355051Y-51332184D01*
X116355049Y-51332181D01*
X116355048Y-51332179D01*
X116230109Y-51160213D01*
X116079786Y-51009890D01*
X115907820Y-50884951D01*
X115907115Y-50884591D01*
X115899054Y-50880485D01*
X115848259Y-50832512D01*
X115831463Y-50764692D01*
X115853999Y-50698556D01*
X115899054Y-50659515D01*
X115907816Y-50655051D01*
X116041098Y-50558217D01*
X116079786Y-50530109D01*
X116079788Y-50530106D01*
X116079792Y-50530104D01*
X116230104Y-50379792D01*
X116230106Y-50379788D01*
X116230109Y-50379786D01*
X116355048Y-50207820D01*
X116355047Y-50207820D01*
X116355051Y-50207816D01*
X116451557Y-50018412D01*
X116517246Y-49816243D01*
X116550500Y-49606287D01*
X116550500Y-49393713D01*
X116517246Y-49183757D01*
X116451557Y-48981588D01*
X116355051Y-48792184D01*
X116355049Y-48792181D01*
X116355048Y-48792179D01*
X116230109Y-48620213D01*
X116116569Y-48506673D01*
X116083084Y-48445350D01*
X116088068Y-48375658D01*
X116129940Y-48319725D01*
X116160915Y-48302810D01*
X116292331Y-48253796D01*
X116407546Y-48167546D01*
X116493796Y-48052331D01*
X116544091Y-47917483D01*
X116550500Y-47857873D01*
X116550499Y-46062128D01*
X116544091Y-46002517D01*
X116543155Y-46000008D01*
X116493797Y-45867671D01*
X116493793Y-45867664D01*
X116407547Y-45752455D01*
X116407544Y-45752452D01*
X116292335Y-45666206D01*
X116292328Y-45666202D01*
X116157482Y-45615908D01*
X116157483Y-45615908D01*
X116097883Y-45609501D01*
X116097881Y-45609500D01*
X116097873Y-45609500D01*
X116097864Y-45609500D01*
X114302129Y-45609500D01*
X114302123Y-45609501D01*
X114242516Y-45615908D01*
X114107671Y-45666202D01*
X114107664Y-45666206D01*
X113992455Y-45752452D01*
X113992452Y-45752455D01*
X113906206Y-45867664D01*
X113906202Y-45867671D01*
X113855908Y-46002517D01*
X113849501Y-46062116D01*
X113849501Y-46062123D01*
X113849500Y-46062135D01*
X112900500Y-46062135D01*
X112900500Y-31553713D01*
X113849500Y-31553713D01*
X113849500Y-31766286D01*
X113882753Y-31976239D01*
X113948444Y-32178414D01*
X114044951Y-32367820D01*
X114169890Y-32539786D01*
X114320213Y-32690109D01*
X114492182Y-32815050D01*
X114500946Y-32819516D01*
X114551742Y-32867491D01*
X114568536Y-32935312D01*
X114545998Y-33001447D01*
X114500946Y-33040484D01*
X114492182Y-33044949D01*
X114320213Y-33169890D01*
X114169890Y-33320213D01*
X114044951Y-33492179D01*
X113948444Y-33681585D01*
X113882753Y-33883760D01*
X113849500Y-34093713D01*
X113849500Y-34306286D01*
X113882753Y-34516239D01*
X113948444Y-34718414D01*
X114044951Y-34907820D01*
X114169890Y-35079786D01*
X114320213Y-35230109D01*
X114492182Y-35355050D01*
X114500946Y-35359516D01*
X114551742Y-35407491D01*
X114568536Y-35475312D01*
X114545998Y-35541447D01*
X114500946Y-35580484D01*
X114492182Y-35584949D01*
X114320213Y-35709890D01*
X114169890Y-35860213D01*
X114044951Y-36032179D01*
X113948444Y-36221585D01*
X113882753Y-36423760D01*
X113849500Y-36633713D01*
X113849500Y-36846286D01*
X113882753Y-37056239D01*
X113948444Y-37258414D01*
X114044951Y-37447820D01*
X114169890Y-37619786D01*
X114320213Y-37770109D01*
X114492179Y-37895048D01*
X114492181Y-37895049D01*
X114492184Y-37895051D01*
X114501493Y-37899794D01*
X114552290Y-37947766D01*
X114569087Y-38015587D01*
X114546552Y-38081722D01*
X114501505Y-38120760D01*
X114492446Y-38125376D01*
X114492440Y-38125380D01*
X114438282Y-38164727D01*
X114438282Y-38164728D01*
X115070591Y-38797037D01*
X115007007Y-38814075D01*
X114892993Y-38879901D01*
X114799901Y-38972993D01*
X114734075Y-39087007D01*
X114717037Y-39150591D01*
X114084728Y-38518282D01*
X114084727Y-38518282D01*
X114045380Y-38572439D01*
X113948904Y-38761782D01*
X113883242Y-38963869D01*
X113883242Y-38963872D01*
X113850000Y-39173753D01*
X113850000Y-39386246D01*
X113883242Y-39596127D01*
X113883242Y-39596130D01*
X113948904Y-39798217D01*
X114045375Y-39987550D01*
X114084728Y-40041716D01*
X114717037Y-39409408D01*
X114734075Y-39472993D01*
X114799901Y-39587007D01*
X114892993Y-39680099D01*
X115007007Y-39745925D01*
X115070590Y-39762962D01*
X114400370Y-40433181D01*
X114339047Y-40466666D01*
X114312698Y-40469500D01*
X114302134Y-40469500D01*
X114302123Y-40469501D01*
X114242516Y-40475908D01*
X114107671Y-40526202D01*
X114107664Y-40526206D01*
X113992455Y-40612452D01*
X113992452Y-40612455D01*
X113906206Y-40727664D01*
X113906202Y-40727671D01*
X113855908Y-40862517D01*
X113852985Y-40889711D01*
X113849501Y-40922123D01*
X113849500Y-40922135D01*
X113849500Y-42717870D01*
X113849501Y-42717876D01*
X113855908Y-42777483D01*
X113906202Y-42912328D01*
X113906206Y-42912335D01*
X113992452Y-43027544D01*
X113992455Y-43027547D01*
X114107664Y-43113793D01*
X114107671Y-43113797D01*
X114242517Y-43164091D01*
X114242516Y-43164091D01*
X114249444Y-43164835D01*
X114302127Y-43170500D01*
X116097872Y-43170499D01*
X116157483Y-43164091D01*
X116292331Y-43113796D01*
X116407546Y-43027546D01*
X116493796Y-42912331D01*
X116544091Y-42777483D01*
X116550500Y-42717873D01*
X116550499Y-40922128D01*
X116544091Y-40862517D01*
X116493796Y-40727669D01*
X116493795Y-40727668D01*
X116493793Y-40727664D01*
X116407547Y-40612455D01*
X116407544Y-40612452D01*
X116292335Y-40526206D01*
X116292328Y-40526202D01*
X116157482Y-40475908D01*
X116157483Y-40475908D01*
X116097883Y-40469501D01*
X116097881Y-40469500D01*
X116097873Y-40469500D01*
X116097865Y-40469500D01*
X116087309Y-40469500D01*
X116020270Y-40449815D01*
X115999628Y-40433181D01*
X115329408Y-39762962D01*
X115392993Y-39745925D01*
X115507007Y-39680099D01*
X115600099Y-39587007D01*
X115665925Y-39472993D01*
X115682962Y-39409408D01*
X116315270Y-40041717D01*
X116315270Y-40041716D01*
X116354622Y-39987554D01*
X116451095Y-39798217D01*
X116516757Y-39596130D01*
X116516757Y-39596127D01*
X116550000Y-39386246D01*
X116550000Y-39173753D01*
X116516757Y-38963872D01*
X116516757Y-38963869D01*
X116451095Y-38761782D01*
X116354624Y-38572449D01*
X116315270Y-38518282D01*
X116315269Y-38518282D01*
X115682962Y-39150590D01*
X115665925Y-39087007D01*
X115600099Y-38972993D01*
X115507007Y-38879901D01*
X115392993Y-38814075D01*
X115329409Y-38797037D01*
X115961716Y-38164728D01*
X115907547Y-38125373D01*
X115907547Y-38125372D01*
X115898500Y-38120763D01*
X115847706Y-38072788D01*
X115830912Y-38004966D01*
X115853451Y-37938832D01*
X115898508Y-37899793D01*
X115907816Y-37895051D01*
X115987007Y-37837515D01*
X116079786Y-37770109D01*
X116079788Y-37770106D01*
X116079792Y-37770104D01*
X116230104Y-37619792D01*
X116230106Y-37619788D01*
X116230109Y-37619786D01*
X116355048Y-37447820D01*
X116355047Y-37447820D01*
X116355051Y-37447816D01*
X116451557Y-37258412D01*
X116517246Y-37056243D01*
X116550500Y-36846287D01*
X116550500Y-36633713D01*
X116517246Y-36423757D01*
X116451557Y-36221588D01*
X116355051Y-36032184D01*
X116355049Y-36032181D01*
X116355048Y-36032179D01*
X116230109Y-35860213D01*
X116079786Y-35709890D01*
X115907820Y-35584951D01*
X115907115Y-35584591D01*
X115899054Y-35580485D01*
X115848259Y-35532512D01*
X115831463Y-35464692D01*
X115853999Y-35398556D01*
X115899054Y-35359515D01*
X115907816Y-35355051D01*
X115929789Y-35339086D01*
X116079786Y-35230109D01*
X116079788Y-35230106D01*
X116079792Y-35230104D01*
X116230104Y-35079792D01*
X116230106Y-35079788D01*
X116230109Y-35079786D01*
X116355048Y-34907820D01*
X116355047Y-34907820D01*
X116355051Y-34907816D01*
X116451557Y-34718412D01*
X116517246Y-34516243D01*
X116550500Y-34306287D01*
X116550500Y-34093713D01*
X116517246Y-33883757D01*
X116451557Y-33681588D01*
X116355051Y-33492184D01*
X116355049Y-33492181D01*
X116355048Y-33492179D01*
X116230109Y-33320213D01*
X116079786Y-33169890D01*
X115907820Y-33044951D01*
X115907115Y-33044591D01*
X115899054Y-33040485D01*
X115848259Y-32992512D01*
X115831463Y-32924692D01*
X115853999Y-32858556D01*
X115899054Y-32819515D01*
X115907816Y-32815051D01*
X115929789Y-32799086D01*
X116079786Y-32690109D01*
X116079788Y-32690106D01*
X116079792Y-32690104D01*
X116230104Y-32539792D01*
X116230106Y-32539788D01*
X116230109Y-32539786D01*
X116355048Y-32367820D01*
X116355047Y-32367820D01*
X116355051Y-32367816D01*
X116451557Y-32178412D01*
X116517246Y-31976243D01*
X116550500Y-31766287D01*
X116550500Y-31553713D01*
X116517246Y-31343757D01*
X116451557Y-31141588D01*
X116355051Y-30952184D01*
X116355049Y-30952181D01*
X116355048Y-30952179D01*
X116230109Y-30780213D01*
X116079786Y-30629890D01*
X115907820Y-30504951D01*
X115718414Y-30408444D01*
X115718413Y-30408443D01*
X115718412Y-30408443D01*
X115516243Y-30342754D01*
X115516241Y-30342753D01*
X115516240Y-30342753D01*
X115354957Y-30317208D01*
X115306287Y-30309500D01*
X115093713Y-30309500D01*
X115045042Y-30317208D01*
X114883760Y-30342753D01*
X114681585Y-30408444D01*
X114492179Y-30504951D01*
X114320213Y-30629890D01*
X114169890Y-30780213D01*
X114044951Y-30952179D01*
X113948444Y-31141585D01*
X113882753Y-31343760D01*
X113849500Y-31553713D01*
X112900500Y-31553713D01*
X112900500Y-23324500D01*
X112920185Y-23257461D01*
X112972989Y-23211706D01*
X113024500Y-23200500D01*
X142375500Y-23200500D01*
X142442539Y-23220185D01*
G37*
%TD.AperFunction*%
%TD*%
M02*
