%TF.GenerationSoftware,KiCad,Pcbnew,9.0.7*%
%TF.CreationDate,2026-03-08T14:18:39-05:00*%
%TF.ProjectId,polly_pcb,706f6c6c-795f-4706-9362-2e6b69636164,rev?*%
%TF.SameCoordinates,Original*%
%TF.FileFunction,Paste,Top*%
%TF.FilePolarity,Positive*%
%FSLAX46Y46*%
G04 Gerber Fmt 4.6, Leading zero omitted, Abs format (unit mm)*
G04 Created by KiCad (PCBNEW 9.0.7) date 2026-03-08 14:18:39*
%MOMM*%
%LPD*%
G01*
G04 APERTURE LIST*
G04 Aperture macros list*
%AMRoundRect*
0 Rectangle with rounded corners*
0 $1 Rounding radius*
0 $2 $3 $4 $5 $6 $7 $8 $9 X,Y pos of 4 corners*
0 Add a 4 corners polygon primitive as box body*
4,1,4,$2,$3,$4,$5,$6,$7,$8,$9,$2,$3,0*
0 Add four circle primitives for the rounded corners*
1,1,$1+$1,$2,$3*
1,1,$1+$1,$4,$5*
1,1,$1+$1,$6,$7*
1,1,$1+$1,$8,$9*
0 Add four rect primitives between the rounded corners*
20,1,$1+$1,$2,$3,$4,$5,0*
20,1,$1+$1,$4,$5,$6,$7,0*
20,1,$1+$1,$6,$7,$8,$9,0*
20,1,$1+$1,$8,$9,$2,$3,0*%
G04 Aperture macros list end*
%ADD10RoundRect,0.250000X-0.262500X-0.450000X0.262500X-0.450000X0.262500X0.450000X-0.262500X0.450000X0*%
%ADD11RoundRect,0.250000X-0.475000X0.250000X-0.475000X-0.250000X0.475000X-0.250000X0.475000X0.250000X0*%
%ADD12RoundRect,0.250000X0.475000X-0.250000X0.475000X0.250000X-0.475000X0.250000X-0.475000X-0.250000X0*%
%ADD13RoundRect,0.250000X0.262500X0.450000X-0.262500X0.450000X-0.262500X-0.450000X0.262500X-0.450000X0*%
%ADD14RoundRect,0.250000X-0.525000X-0.400000X0.525000X-0.400000X0.525000X0.400000X-0.525000X0.400000X0*%
%ADD15RoundRect,0.250000X-0.450000X0.262500X-0.450000X-0.262500X0.450000X-0.262500X0.450000X0.262500X0*%
%ADD16RoundRect,0.375000X0.625000X0.375000X-0.625000X0.375000X-0.625000X-0.375000X0.625000X-0.375000X0*%
%ADD17RoundRect,0.500000X0.500000X1.400000X-0.500000X1.400000X-0.500000X-1.400000X0.500000X-1.400000X0*%
%ADD18R,1.500000X0.900000*%
%ADD19R,0.900000X1.500000*%
%ADD20R,0.900000X0.900000*%
%ADD21R,0.600000X1.450000*%
%ADD22R,0.300000X1.450000*%
G04 APERTURE END LIST*
D10*
%TO.C,R2*%
X133887500Y-63600000D03*
X135712500Y-63600000D03*
%TD*%
D11*
%TO.C,C4*%
X118800000Y-55250000D03*
X118800000Y-57150000D03*
%TD*%
D12*
%TO.C,C2*%
X119100000Y-41850000D03*
X119100000Y-39950000D03*
%TD*%
%TO.C,C3*%
X114900000Y-28100000D03*
X114900000Y-26200000D03*
%TD*%
D13*
%TO.C,R3*%
X127332500Y-63610000D03*
X125507500Y-63610000D03*
%TD*%
D14*
%TO.C,SW1*%
X132320000Y-54950000D03*
X140280000Y-54950000D03*
X132320000Y-59450000D03*
X140280000Y-59450000D03*
%TD*%
%TO.C,SW2*%
X121940000Y-54900000D03*
X129900000Y-54900000D03*
X121940000Y-59400000D03*
X129900000Y-59400000D03*
%TD*%
D15*
%TO.C,R1*%
X119900000Y-26287500D03*
X119900000Y-28112500D03*
%TD*%
D16*
%TO.C,U1*%
X122050000Y-68500000D03*
X122050000Y-66200000D03*
D17*
X115750000Y-66200000D03*
D16*
X122050000Y-63900000D03*
%TD*%
D12*
%TO.C,C1*%
X117300000Y-28100000D03*
X117300000Y-26200000D03*
%TD*%
D18*
%TO.C,U2*%
X123650000Y-24590000D03*
X123650000Y-25860000D03*
X123650000Y-27130000D03*
X123650000Y-28400000D03*
X123650000Y-29670000D03*
X123650000Y-30940000D03*
X123650000Y-32210000D03*
X123650000Y-33480000D03*
X123650000Y-34750000D03*
X123650000Y-36020000D03*
X123650000Y-37290000D03*
X123650000Y-38560000D03*
X123650000Y-39830000D03*
X123650000Y-41100000D03*
D19*
X125415000Y-42350000D03*
X126685000Y-42350000D03*
X127955000Y-42350000D03*
X129225000Y-42350000D03*
X130495000Y-42350000D03*
X131765000Y-42350000D03*
X133035000Y-42350000D03*
X134305000Y-42350000D03*
X135575000Y-42350000D03*
X136845000Y-42350000D03*
X138115000Y-42350000D03*
X139385000Y-42350000D03*
D18*
X141150000Y-41100000D03*
X141150000Y-39830000D03*
X141150000Y-38560000D03*
X141150000Y-37290000D03*
X141150000Y-36020000D03*
X141150000Y-34750000D03*
X141150000Y-33480000D03*
X141150000Y-32210000D03*
X141150000Y-30940000D03*
X141150000Y-29670000D03*
X141150000Y-28400000D03*
X141150000Y-27130000D03*
X141150000Y-25860000D03*
X141150000Y-24590000D03*
D20*
X129500000Y-30910000D03*
X129500000Y-32310000D03*
X129500000Y-33710000D03*
X129500000Y-33710000D03*
X130900000Y-30910000D03*
X130900000Y-30910000D03*
X130900000Y-32310000D03*
X130900000Y-33710000D03*
X132300000Y-30910000D03*
X132300000Y-32310000D03*
X132300000Y-33710000D03*
%TD*%
D10*
%TO.C,R4*%
X134187500Y-47475000D03*
X136012500Y-47475000D03*
%TD*%
D21*
%TO.C,J1*%
X128860000Y-66755000D03*
X129660000Y-66755000D03*
D22*
X130860000Y-66755000D03*
X131860000Y-66755000D03*
X132360000Y-66755000D03*
X133360000Y-66755000D03*
D21*
X134560000Y-66755000D03*
X135360000Y-66755000D03*
X135360000Y-66755000D03*
X134560000Y-66755000D03*
D22*
X133860000Y-66755000D03*
X132860000Y-66755000D03*
X131360000Y-66755000D03*
X130360000Y-66755000D03*
D21*
X129660000Y-66755000D03*
X128860000Y-66755000D03*
%TD*%
M02*
